<?xml version="1.0" standalone="no"?>
<!DOCTYPE svg PUBLIC "-//W3C//DTD SVG 20010904//EN"
 "http://www.w3.org/TR/2001/REC-SVG-20010904/DTD/svg10.dtd">
<svg version="1.0" xmlns="http://www.w3.org/2000/svg"
 width="48.000000pt" height="48.000000pt" viewBox="0 0 48.000000 48.000000"
 preserveAspectRatio="xMidYMid meet">

<g transform="translate(0.000000,48.000000) scale(0.100000,-0.100000)"
fill="#000000" stroke="none">
<path d="M135 420 c-14 -27 -20 -30 -64 -30 -30 0 -53 -6 -60 -14 -18 -22 0
-324 20 -337 7 -5 103 -9 211 -9 156 0 199 3 211 14 18 19 33 312 16 332 -7 8
-31 14 -60 14 -44 0 -50 3 -64 30 -15 30 -16 30 -105 30 -89 0 -90 0 -105 -30z
m185 -15 c0 -12 -16 -15 -80 -15 -64 0 -80 3 -80 15 0 12 16 15 80 15 64 0 80
-3 80 -15z m128 -85 l3 -45 -66 -33 c-61 -30 -69 -32 -106 -21 -30 9 -48 9
-78 0 -37 -11 -45 -9 -105 21 -65 32 -66 33 -66 73 0 23 3 45 7 49 4 3 97 5
207 4 l201 -3 3 -45z m-337 -115 c27 -14 59 -35 69 -45 27 -27 93 -27 120 0
20 20 112 70 130 70 6 0 10 -33 10 -85 l0 -85 -200 0 -200 0 0 85 c0 52 4 85
10 85 6 0 33 -11 61 -25z m167 -22 c2 -9 -9 -13 -37 -13 -39 0 -50 8 -34 24
11 11 66 2 71 -11z"/>
</g>
</svg>
